<?xml version="1.0" encoding="UTF-8"?>
<svg id="Layer_1" xmlns="http://www.w3.org/2000/svg" version="1.1" viewBox="0 0 65 65">
  <!-- Generator: Adobe Illustrator 29.5.1, SVG Export Plug-In . SVG Version: 2.1.0 Build 141)  -->
  <path d="M65.58,59.59c-.32,3.15-4.52,4.39-7.32,4.7-11.07,1.25-36.98,1.07-48.24.03-5.78-.53-8.33-2.24-9.01-8.15C-.28,44.89.07,20.74.98,9.12c.16-2.03-.11-3.98,1.08-5.76C5.11-1.18,23.62.07,30.29.18l1.72,16.24-23.25,1.71.87,18.81,23.26-2.19c1.45,1.03,1.37,19.34,2.6,22.66l18.04-.8-1.73-23.94,13.78-.85c.14,8.19.73,20.58,0,27.78Z"/>
  <path d="M61.71.18c3.13.63,4.06,9.89,3.88,13.68l-15,.9L48.36.18c2.6-.23,10.18-.63,13.34,0Z"/>
</svg>