<?xml version="1.0" encoding="utf-8"?>
<svg version="1.1" id="Layer_1" xmlns="http://www.w3.org/2000/svg" x="0px" y="0px"
	 viewBox="0 0 512 512" style="enable-background:new 0 0 512 512;" xml:space="preserve">
<path d="M112,361.7v19.6V448v16v35c0,7.2-5.8,13-13,13h-3H77c-7.2,0-13-5.8-13-13v-19v-16v-77.6c0-3.3-1.2-6.4-3.5-8.8
	C21.7,336.1,0,281.2,0,224.2C0,100.6,100.2,0,224,0h32c100.4,0,182.8,77,191.3,175.3c0.2,2.7,1.4,5.3,3.2,7.4l53.4,60.1l4.8,5.4
	c2.1,2.4,3.3,5.4,3.3,8.6v7.2v24v16v19c0,7.2-5.8,13-13,13h-3h-16h-16h-3c-7.2,0-13,5.8-13,13v35v16v16v18.4c0,7-5.6,12.7-12.6,13
	L416,448h-16h-32h-35c-7.2,0-13,5.8-13,13v3v16v16v3c0,7.2-5.8,13-13,13h-19h-3c-7.2,0-13-5.8-13-13v-35v-16v-35c0-7.2,5.8-13,13-13
	h35l67.2-0.8c7.1-0.1,12.8-5.9,12.8-13V336v-35c0-7.2,5.8-13,13-13h35h3c7.2,0,13-5.8,13-13v0c0-3.2-1.2-6.2-3.3-8.6l-49-55.1l-8-9
	c-1.9-2.2-3.1-4.9-3.3-7.8l-0.8-12C394.8,107.4,332.3,48,256,48h-32c-97.2,0-176,79-176,176.2c0,46.1,18.1,90.5,50.3,123.4l13.7,14
	V361.7z M311.3,192H272v16c0,22.1-17.9,40-40,40h-8v48v4c0,11-9,20-20,20h-8c-11,0-20-9-20-20v-4v-48h-16c-22.1,0-40-17.9-40-40
	v-3.3c-14.1-6.2-24-20.3-24-36.7c0-22.1,17.9-40,40-40h0.2c2-18,17.2-32,35.8-32c6.2,0,12.1,1.6,17.2,4.3C196,88.2,209.1,80,224,80
	s28,8.2,34.8,20.3c5.1-2.8,10.9-4.3,17.2-4.3c12.7,0,23.8,6.5,30.2,16.4c1.9-0.3,3.8-0.4,5.8-0.4c22.4,0,40.5,18.4,40,40.9
	C351.5,174.7,333.2,192,311.3,192z"/>
</svg>
