<?xml version="1.0" standalone="no"?>
<!DOCTYPE svg PUBLIC "-//W3C//DTD SVG 20010904//EN"
 "http://www.w3.org/TR/2001/REC-SVG-20010904/DTD/svg10.dtd">
<svg version="1.0" xmlns="http://www.w3.org/2000/svg"
 width="512.000000pt" height="512.000000pt" viewBox="0 0 512.000000 512.000000"
 preserveAspectRatio="xMidYMid meet">

<g transform="translate(0.000000,512.000000) scale(0.100000,-0.100000)"
fill="#000000" stroke="none">
<path d="M2117 4836 c-285 -157 -527 -292 -538 -302 -24 -21 -25 -66 -1 -86 9
-8 249 -141 534 -296 338 -185 526 -282 545 -282 63 0 67 36 19 200 -18 63
-30 116 -25 118 16 6 175 -30 279 -64 544 -178 987 -638 1137 -1179 23 -85 51
-225 44 -225 -3 0 -60 16 -125 35 -66 19 -129 35 -141 35 -27 0 -55 -29 -55
-57 0 -12 130 -259 289 -550 204 -374 296 -532 314 -542 22 -13 28 -13 50 2
30 20 597 1054 597 1090 0 27 -28 57 -54 57 -9 0 -88 -20 -174 -45 -86 -25
-162 -45 -168 -45 -7 0 -17 34 -24 88 -41 294 -176 652 -340 901 -360 547
-923 910 -1558 1006 -52 8 -96 16 -99 18 -2 3 16 75 41 160 25 85 46 168 46
185 0 32 -27 62 -56 62 -10 -1 -252 -128 -537 -284z"/>
<path d="M139 3583 c-63 -39 -59 46 -59 -1263 0 -1300 -3 -1225 57 -1266 26
-18 55 -19 450 -22 l422 -3 4 578 c3 500 6 585 20 633 59 194 195 337 380 395
l78 25 575 0 574 0 0 426 c0 467 1 462 -60 498 -26 15 -134 16 -1222 16 -1085
-1 -1195 -2 -1219 -17z"/>
<path d="M1464 2366 c-66 -31 -120 -85 -153 -155 l-26 -56 -3 -915 c-3 -947
-1 -1003 38 -1079 26 -52 97 -115 156 -137 47 -18 89 -19 1014 -19 l965 0 48
25 c66 33 115 83 146 149 l26 56 0 965 c0 960 0 965 -21 1011 -32 68 -82 119
-149 151 l-60 28 -965 0 -965 0 -51 -24z m1806 -1166 l0 -790 -790 0 -790 0 0
790 0 790 790 0 790 0 0 -790z"/>
</g>
</svg>
