<?xml version="1.0" standalone="no"?>
<!DOCTYPE svg PUBLIC "-//W3C//DTD SVG 20010904//EN"
 "http://www.w3.org/TR/2001/REC-SVG-20010904/DTD/svg10.dtd">
<svg version="1.0" xmlns="http://www.w3.org/2000/svg"
 width="512.000000pt" height="512.000000pt" viewBox="0 0 512.000000 512.000000"
 preserveAspectRatio="xMidYMid meet">

<g transform="translate(0.000000,512.000000) scale(0.100000,-0.100000)"
fill="#000000" stroke="none">
<path d="M2955 5109 c-430 -41 -846 -231 -1135 -519 -301 -300 -471 -715 -474
-1152 -1 -123 1 -139 20 -164 52 -71 131 -92 206 -55 71 34 89 76 98 234 13
220 53 382 139 562 218 459 708 752 1292 772 467 17 881 -140 1166 -440 257
-273 376 -625 360 -1070 -7 -193 -26 -315 -73 -456 -87 -262 -216 -430 -503
-656 -268 -211 -321 -255 -407 -340 -149 -147 -253 -305 -320 -482 -14 -37
-41 -135 -60 -218 -74 -321 -150 -484 -290 -622 -124 -122 -289 -179 -494
-170 -195 8 -331 66 -456 192 -121 122 -185 283 -202 507 -7 84 -13 115 -29
136 -67 90 -197 98 -262 16 -36 -46 -43 -94 -31 -219 55 -598 487 -988 1065
-962 315 15 563 144 747 390 123 166 185 313 263 622 95 381 168 487 533 776
406 321 513 431 641 654 229 399 277 1038 115 1533 -246 753 -1024 1214 -1909
1131z"/>
<path d="M3010 4455 c-8 -2 -49 -9 -90 -15 -334 -54 -649 -279 -792 -565 -33
-66 -73 -182 -93 -275 -22 -102 -34 -588 -15 -646 23 -72 81 -115 155 -116 35
-1 63 10 144 57 148 84 239 117 336 122 67 4 85 1 111 -15 37 -24 74 -95 74
-144 0 -135 -230 -362 -530 -522 -119 -64 -138 -79 -156 -123 -46 -108 29
-226 144 -227 36 -1 65 8 122 38 196 101 352 210 487 339 250 239 320 484 207
715 -121 247 -377 332 -686 227 -40 -14 -77 -25 -82 -25 -16 0 2 230 24 308
94 332 393 542 771 543 245 1 428 -65 580 -208 135 -128 198 -266 222 -492 16
-140 25 -163 78 -204 56 -41 152 -31 204 21 39 39 47 66 46 163 -2 109 -22
224 -60 338 -115 342 -415 599 -801 687 -59 13 -364 28 -400 19z"/>
<path d="M735 3590 c-92 -20 -148 -102 -131 -194 4 -21 31 -62 74 -111 183
-211 273 -362 345 -575 150 -444 99 -921 -141 -1325 -45 -76 -107 -157 -199
-263 -58 -67 -73 -92 -79 -127 -15 -101 59 -187 161 -187 61 0 93 20 177 114
261 291 414 613 474 998 21 140 21 420 0 560 -49 313 -163 591 -344 840 -67
91 -197 236 -225 252 -33 17 -79 25 -112 18z"/>
<path d="M254 3036 c-63 -28 -105 -115 -89 -185 4 -17 37 -68 75 -113 83 -99
141 -205 172 -313 19 -66 23 -104 23 -215 0 -111 -4 -149 -23 -215 -31 -108
-89 -214 -172 -313 -43 -52 -72 -96 -76 -117 -19 -101 58 -195 161 -195 59 0
99 24 165 100 370 431 370 1049 0 1480 -35 40 -78 78 -96 86 -42 18 -100 17
-140 0z"/>
</g>
</svg>
